<?xml version="1.0" encoding="UTF-8"?>
<svg xmlns="http://www.w3.org/2000/svg" width="512" height="512" viewBox="0 0 512 512">
  <defs>
    <linearGradient id="bg" x1="0%" y1="0%" x2="100%" y2="100%">
      <stop offset="0%" style="stop-color:#0f172a;stop-opacity:1" />
      <stop offset="100%" style="stop-color:#1e293b;stop-opacity:1" />
    </linearGradient>
    <linearGradient id="shield" x1="0%" y1="0%" x2="0%" y2="100%">
      <stop offset="0%" style="stop-color:#3b82f6;stop-opacity:1" />
      <stop offset="100%" style="stop-color:#2563eb;stop-opacity:1" />
    </linearGradient>
  </defs>
  
  <rect width="512" height="512" rx="96" fill="url(#bg)"/>
  
  <g transform="translate(256, 200)">
    <path d="M 0 -90 L 70 -30 L 60 60 L 0 90 L -60 60 L -70 -30 Z" 
          fill="url(#shield)" 
          stroke="#60a5fa" 
          stroke-width="4"/>
    <path d="M 0 -65 L 50 -15 L 42 40 L 0 65 L -42 40 L -50 -15 Z" 
          fill="#1e293b" 
          opacity="0.3"/>
  </g>
  
  <g transform="translate(256, 200)">
    <rect x="-30" y="-25" width="60" height="50" rx="6" fill="#ffffff"/>
    <line x1="0" y1="-25" x2="0" y2="25" stroke="#3b82f6" stroke-width="3"/>
    <line x1="-20" y1="-10" x2="20" y2="-10" stroke="#3b82f6" stroke-width="2" opacity="0.6"/>
    <line x1="-20" y1="5" x2="20" y2="5" stroke="#3b82f6" stroke-width="2" opacity="0.6"/>
    <line x1="-20" y1="20" x2="20" y2="20" stroke="#3b82f6" stroke-width="2" opacity="0.6"/>
  </g>
  
  <circle cx="186" cy="130" r="8" fill="#10b981"/>
  <circle cx="326" cy="130" r="8" fill="#f59e0b"/>
  
  <text x="256" y="380" 
        font-family="Inter, -apple-system, BlinkMacSystemFont, 'Segoe UI', Roboto, sans-serif" 
        font-size="52" 
        font-weight="800" 
        fill="#ffffff" 
        text-anchor="middle" 
        letter-spacing="3">MAAIS</text>
  
  <text x="256" y="425" 
        font-family="Inter, -apple-system, BlinkMacSystemFont, 'Segoe UI', Roboto, sans-serif" 
        font-size="20" 
        font-weight="500" 
        fill="#94a3b8" 
        text-anchor="middle" 
        letter-spacing="2">ACADEMIC AUDIT</text>
</svg>
